<?xml version="1.0" encoding="utf-8"?>
<?xml-stylesheet type="text/xsl" href="rss1.xsl"?>
<rss version="2.0" xmlns:atom="http://www.w3.org/2005/Atom" xmlns:content="http://purl.org/rss/1.0/modules/content/" xmlns:dc="http://purl.org/dc/elements/1.1/" xmlns:media="http://search.yahoo.com/mrss/">
<channel>
 <title>Getty</title>
 <link>http://www.gettyimg.com/</link>
 <atom:link href="http://www.gettyimg.com/" rel="self" type="application/rss+xml" />

 
                <item>
                <title><![CDATA[【Music Videos】Nico &amp; Vinz - Am I Wrong (Xtendz - 1080 (Clean) [Extended]) (VjPro/Smashvision Pool)]]></title>
                <link><![CDATA[https://sharemania.us/threads/nico-vinz-am-i-wrong-xtendz-1080-clean-extended-vjpro-smashvision-pool.226656/]]></link>
                <description><![CDATA[<article>
<blockquote class="messageText SelectQuoteContainer ugc baseHtml">
<img src="https://i.imgur.com/mX3XqFp.jpeg" class="bbCodeImage LbImage" alt="[​IMG]" data-url="https://i.imgur.com/mX3XqFp.jpeg" style=""> <br>
Nico &amp; Vinz - Am I Wrong (Xtendz - 1080 (Clean) [Extended])<br>
<b>Year: 2013<br>
BPM: 120.00<br>
Grouping: Clean<br>
<span style="font-size: 18px">Genre: </span>Rhythmic / Top 40</b><br>
Rip from VjPro/Smashvision With Virtual DJ 2023<br>
<b><br>
For The (Mike D Remix) Here is this link</b><br>
<a href="https://sharemania.us/threads/nico-and-vinz-am-i-wrong-720p-mike-d-edit-reel-v-edit-extended-vjstreet-pool.222488/" class="internalLink">https://sharemania.us/threads/nico-...it-reel-v-edit-extended-vjstreet-pool.222488/</a><br>
<b><br>
[/URL]
<div class="bbCodeBlock bbCodeVfcHH HiddenContent">
<div class="attribution type">Hidden Content:</div>
<blockquote>You must reply before you can see the hidden data contained here.</blockquote>
</div></b>
<div class="messageTextEndMarker">&nbsp;</div>
</blockquote>
</article>]]></description>
                <author><![CDATA[gamerfronts]]></author>
                </item>

                
                <item>
                <title><![CDATA[【Albums (lossy)】MP3 - Floricienta - Floricienta Y Su Banda (Karaoke) 2004 [320 Kbps]]]></title>
                <link><![CDATA[https://sharemania.us/threads/floricienta-floricienta-y-su-banda-karaoke-2004-320-kbps.226657/]]></link>
                <description><![CDATA[<article>
<blockquote class="messageText SelectQuoteContainer ugc baseHtml">
<div style="text-align: center"><img src="https://i.imgur.com/HgojcYe.jpg" class="bbCodeImage LbImage" alt="[​IMG]" data-url="https://i.imgur.com/HgojcYe.jpg" style=""><br>
<br>
<span style="font-family: 'Arial'"><span style="font-size: 12px">Digital Cover Art By Me</span></span><br>
<br>
Spectrogram<br>
<br>
<img src="https://i.imgur.com/RCa0Vry.png" class="bbCodeImage LbImage" alt="[​IMG]" data-url="https://i.imgur.com/RCa0Vry.png" style="">​</div><br>
<div class="ToggleTriggerAnchor bbCodeSpoilerContainer">
<button type="button" class="button bbCodeSpoilerButton ToggleTrigger Tooltip JsOnly" data-target="> .SpoilerTarget"><span>Spoiler: <span class="SpoilerTitle">Tracklist</span></span></button>
<div class="SpoilerTarget bbCodeSpoilerText">01 Pobre Los Ricos (Karaoke)<br>
02 Chaval Chulito (Karaoke)<br>
03 Ven A Mí (Karaoke)<br>
04 Tic Tac (Karaoke)<br>
05 Los Niños No Mueren (Karaoke)<br>
06 Y Así Será (Karaoke)<br>
07 Floricienta (Karaoke)<br>
08 Quereme Sólo A Mí (Karaoke)<br>
09 Mi Vestido Azul (Karaoke)<br>
10 Kikiriki (Karaoke)<br>
11 Y La Vida (Karaoke)<br>
12 Por Qué (Karaoke)<br>
<br>
℗ 2004 Cris Morena Group S.A.</div>
</div><br>
<div class="ToggleTriggerAnchor bbCodeSpoilerContainer">
<button type="button" class="button bbCodeSpoilerButton ToggleTrigger Tooltip JsOnly" data-target="> .SpoilerTarget"><span>Spoiler: <span class="SpoilerTitle">Bonus Tracks (Music Videos)</span></span></button>
<div class="SpoilerTarget bbCodeSpoilerText">Bonus Track:<br>
13 Por Qué (Music Video)<br>
14 Mi Vestido Azul (Music Video)<br>
------------------------------------------------------<br>
Por Qué:<br>
General<br>
Format : AVI<br>
Format/Info : Audio Video Interleave<br>
File size : 111 MiB<br>
Duration : 3 min 53 s<br>
Overall bit rate : 4 013 kb/s<br>
IsTruncated : Yes<br>
<br>
Video<br>
ID : 0<br>
Format : Cinepak<br>
Codec ID : cvid<br>
Duration : 3 min 52 s<br>
Bit rate : 3 312 kb/s<br>
Width : 308 pixels<br>
Height : 244 pixels<br>
Display aspect ratio : 5:4<br>
Frame rate : 25.000 FPS<br>
Bits/(Pixel*Frame) : 1.763<br>
Stream size : 91.7 MiB (82%)<br>
Title : VS#0 489950KBps<br>
<br>
Audio<br>
ID : 1<br>
Format : PCM<br>
Format settings : Little / Signed<br>
Codec ID : 1<br>
Duration : 3 min 53 s<br>
Bit rate mode : Constant<br>
Bit rate : 705.6 kb/s<br>
Channel(s) : 2 channels<br>
Sampling rate : 22.05 kHz<br>
Bit depth : 16 bits<br>
Stream size : 19.6 MiB (18%)<br>
Alignment : Aligned on interleaves<br>
Interleave, duration : 997 ms (24.93 video frames)<br>
Title : Audio stream<br>
<br>
<br>
Mi Vestido Azul:<br>
General<br>
Format : AVI<br>
Format/Info : Audio Video Interleave<br>
File size : 104 MiB<br>
Duration : 3 min 33 s<br>
Overall bit rate : 4 102 kb/s<br>
IsTruncated : Yes<br>
<br>
Video<br>
ID : 0<br>
Format : Cinepak<br>
Codec ID : cvid<br>
Duration : 3 min 32 s<br>
Bit rate : 3 393 kb/s<br>
Width : 308 pixels<br>
Height : 244 pixels<br>
Display aspect ratio : 5:4<br>
Frame rate : 25.000 FPS<br>
Bits/(Pixel*Frame) : 1.806<br>
Stream size : 86.1 MiB (83%)<br>
Title : VS#0 489950KBps<br>
<br>
Audio<br>
ID : 1<br>
Format : PCM<br>
Format settings : Little / Signed<br>
Codec ID : 1<br>
Duration : 3 min 33 s<br>
Bit rate mode : Constant<br>
Bit rate : 705.6 kb/s<br>
Channel(s) : 2 channels<br>
Sampling rate : 22.05 kHz<br>
Bit depth : 16 bits<br>
Stream size : 17.9 MiB (17%)<br>
Alignment : Aligned on interleaves<br>
Interleave, duration : 1000 ms (24.99 video frames)<br>
Title : Audio stream</div>
</div><br>
<div style="text-align: center">
<div class="bbCodeBlock bbCodeVfcHH HiddenContent">
<div class="attribution type">Hidden Content:</div>
<blockquote>You must either reply or click 'Like' to see the hidden information contained here.</blockquote>
</div></div>
<div class="messageTextEndMarker">&nbsp;</div>
</blockquote>
</article>]]></description>
                <author><![CDATA[Mizz]]></author>
                </item>

                </channel></rss>